<svg xmlns="http://www.w3.org/2000/svg" xmlns:xlink="http://www.w3.org/1999/xlink" width="500" zoomAndPan="magnify" viewBox="0 0 375 374.999991" height="500" preserveAspectRatio="xMidYMid meet" version="1.0"><defs><g/><clipPath id="cf55c14f00"><path d="M 122 20.023438 L 253 20.023438 L 253 209.773438 L 122 209.773438 Z M 122 20.023438 " clip-rule="nonzero"/></clipPath></defs><rect x="-37.5" width="450" fill="#ffffff" y="-37.499999" height="449.999989" fill-opacity="1"/><rect x="-37.5" width="450" fill="#4758f6" y="-37.499999" height="449.999989" fill-opacity="1"/><g fill="#ffffff" fill-opacity="1"><g transform="translate(60.958224, 317.228397)"><g><path d="M 72.78125 -50.640625 C 71.539062 -49.347656 69.113281 -48.300781 65.5 -47.5 C 61.894531 -46.695312 55.15625 -45.644531 45.28125 -44.34375 C 37.988281 -43.476562 32.628906 -41.6875 29.203125 -38.96875 C 25.785156 -36.257812 24.078125 -32.679688 24.078125 -28.234375 C 24.078125 -22.804688 25.523438 -18.578125 28.421875 -15.546875 C 31.328125 -12.523438 35.957031 -11.015625 42.3125 -11.015625 C 50.28125 -11.015625 57.347656 -13.28125 63.515625 -17.8125 C 69.691406 -22.351562 72.78125 -27.863281 72.78125 -34.34375 Z M 11.765625 -68.984375 C 12.128906 -80.148438 15.753906 -88.445312 22.640625 -93.875 C 29.523438 -99.3125 39.539062 -102.03125 52.6875 -102.03125 C 63.175781 -102.03125 71.96875 -99.65625 79.0625 -94.90625 C 86.164062 -90.15625 89.71875 -83.300781 89.71875 -74.34375 L 89.71875 -17.21875 C 89.71875 -13.332031 91.476562 -11.390625 95 -11.390625 C 96.414062 -11.390625 98.234375 -11.632812 100.453125 -12.125 L 100.453125 0 C 97.429688 1.238281 94.285156 1.859375 91.015625 1.859375 C 85.335938 1.859375 81.109375 0.640625 78.328125 -1.796875 C 75.554688 -4.242188 74.109375 -8.054688 73.984375 -13.234375 C 64.472656 -2.492188 52.523438 2.875 38.140625 2.875 C 28.765625 2.875 21.234375 0.21875 15.546875 -5.09375 C 9.867188 -10.40625 7.03125 -17.316406 7.03125 -25.828125 C 7.03125 -34.535156 9.5 -41.570312 14.4375 -46.9375 C 19.375 -52.3125 26.566406 -55.554688 36.015625 -56.671875 L 65.46875 -60.28125 C 70.769531 -61.082031 73.421875 -65 73.421875 -72.03125 C 73.421875 -77.21875 71.488281 -81.195312 67.625 -83.96875 C 63.769531 -86.75 57.925781 -88.140625 50.09375 -88.140625 C 43.113281 -88.140625 37.753906 -86.597656 34.015625 -83.515625 C 30.285156 -80.429688 28.050781 -75.585938 27.3125 -68.984375 Z M 11.765625 -68.984375 "/></g></g></g><g fill="#ffffff" fill-opacity="1"><g transform="translate(165.11889, 317.228397)"><g><path d="M 12.5 -117.21875 L 12.5 -136.109375 L 29.171875 -136.109375 L 29.171875 -117.21875 Z M 29.171875 0 L 12.5 0 L 12.5 -99.171875 L 29.171875 -99.171875 Z M 29.171875 0 "/></g></g></g><g fill="#ffffff" fill-opacity="1"><g transform="translate(206.875744, 317.228397)"><g><path d="M 78.703125 -44.90625 C 78.703125 -58.976562 76.492188 -69.515625 72.078125 -76.515625 C 67.671875 -83.523438 60.957031 -87.03125 51.9375 -87.03125 C 43.238281 -87.03125 36.539062 -84.191406 31.84375 -78.515625 C 27.15625 -72.835938 24.8125 -63.300781 24.8125 -49.90625 C 24.8125 -37.988281 27.1875 -28.617188 31.9375 -21.796875 C 36.695312 -14.984375 43.242188 -11.578125 51.578125 -11.578125 C 58.921875 -11.578125 65.273438 -14.351562 70.640625 -19.90625 C 76.015625 -25.457031 78.703125 -33.789062 78.703125 -44.90625 Z M 94.625 39.265625 L 77.96875 39.265625 L 77.96875 -10.46875 L 77.59375 -10.46875 C 71.226562 -1.570312 62.429688 2.875 51.203125 2.875 C 37.316406 2.875 26.578125 -2.28125 18.984375 -12.59375 C 11.390625 -22.90625 7.59375 -36.207031 7.59375 -52.5 C 7.59375 -66.945312 11.328125 -78.8125 18.796875 -88.09375 C 26.265625 -97.382812 36.296875 -102.03125 48.890625 -102.03125 C 61.421875 -102.03125 71.296875 -96.414062 78.515625 -85.1875 L 78.890625 -85.1875 L 78.890625 -99.171875 L 94.625 -99.171875 Z M 94.625 39.265625 "/></g></g></g><g clip-path="url(#cf55c14f00)"><path fill="#ffffff" d="M 217.113281 162.175781 C 220.667969 150.367188 228.035156 140.296875 235.328125 130.265625 C 237.253906 127.636719 239.179688 125.007812 241.027344 122.34375 C 248.359375 111.792969 252.652344 99.023438 252.652344 85.214844 C 252.652344 49.195312 223.480469 20.023438 187.5 20.023438 C 151.515625 20.023438 122.34375 49.195312 122.34375 85.175781 C 122.34375 98.984375 126.640625 111.792969 133.96875 122.308594 C 135.820312 124.972656 137.746094 127.601562 139.671875 130.230469 C 147 140.261719 154.367188 150.367188 157.882812 162.140625 L 217.113281 162.140625 Z M 187.5 209.5625 C 203.863281 209.5625 217.113281 196.308594 217.113281 179.945312 L 217.113281 174.023438 L 157.882812 174.023438 L 157.882812 179.945312 C 157.882812 196.308594 171.136719 209.5625 187.5 209.5625 Z M 157.882812 85.175781 C 157.882812 88.433594 155.21875 91.101562 151.960938 91.101562 C 148.703125 91.101562 146.039062 88.433594 146.039062 85.175781 C 146.039062 62.261719 164.585938 43.714844 187.5 43.714844 C 190.757812 43.714844 193.421875 46.378906 193.421875 49.636719 C 193.421875 52.894531 190.757812 55.5625 187.5 55.5625 C 171.136719 55.5625 157.882812 68.8125 157.882812 85.175781 Z M 157.882812 85.175781 " fill-opacity="1" fill-rule="nonzero"/></g></svg>